<mxfile host="app.diagrams.net" agent="Mozilla/5.0 (Macintosh; Intel Mac OS X 10_15_7) AppleWebKit/537.36 (KHTML, like Gecko) Chrome/131.0.0.0 Safari/537.36" version="24.9.3">
  <diagram name="Page-1" id="DNe7bdjcsITiFmNubsdb">
    <mxGraphModel dx="984" dy="563" grid="1" gridSize="10" guides="1" tooltips="1" connect="1" arrows="1" fold="1" page="1" pageScale="1" pageWidth="1400" pageHeight="850" math="0" shadow="0">
      <root>
        <mxCell id="0" />
        <mxCell id="1" parent="0" />
        <mxCell id="rYqSU0_YD1WcTbU8GYVV-1" value="Not Refunded" style="rounded=1;whiteSpace=wrap;html=1;" parent="1" vertex="1">
          <mxGeometry x="320" y="80" width="120" height="60" as="geometry" />
        </mxCell>
        <mxCell id="rYqSU0_YD1WcTbU8GYVV-2" value="" style="ellipse;html=1;shape=startState;fillColor=#000000;strokeColor=#000000;" parent="1" vertex="1">
          <mxGeometry x="140" y="95" width="30" height="30" as="geometry" />
        </mxCell>
        <mxCell id="rYqSU0_YD1WcTbU8GYVV-3" value="" style="edgeStyle=orthogonalEdgeStyle;html=1;verticalAlign=bottom;endArrow=open;endSize=8;strokeColor=#000000;rounded=0;entryX=0;entryY=0.5;entryDx=0;entryDy=0;" parent="1" source="rYqSU0_YD1WcTbU8GYVV-2" target="rYqSU0_YD1WcTbU8GYVV-1" edge="1">
          <mxGeometry relative="1" as="geometry">
            <mxPoint x="205" y="170" as="targetPoint" />
            <Array as="points">
              <mxPoint x="260" y="110" />
              <mxPoint x="260" y="110" />
            </Array>
          </mxGeometry>
        </mxCell>
        <mxCell id="rYqSU0_YD1WcTbU8GYVV-29" value="User Purchases" style="edgeLabel;html=1;align=center;verticalAlign=middle;resizable=0;points=[];" parent="rYqSU0_YD1WcTbU8GYVV-3" vertex="1" connectable="0">
          <mxGeometry x="-0.1636" y="-4" relative="1" as="geometry">
            <mxPoint as="offset" />
          </mxGeometry>
        </mxCell>
        <mxCell id="rYqSU0_YD1WcTbU8GYVV-5" value="Refunded" style="rounded=1;whiteSpace=wrap;html=1;" parent="1" vertex="1">
          <mxGeometry x="320" y="245" width="120" height="60" as="geometry" />
        </mxCell>
        <mxCell id="rYqSU0_YD1WcTbU8GYVV-17" value="" style="edgeStyle=orthogonalEdgeStyle;html=1;verticalAlign=bottom;endArrow=open;endSize=8;strokeColor=#000000;rounded=0;entryX=0.5;entryY=0;entryDx=0;entryDy=0;exitX=0.5;exitY=1;exitDx=0;exitDy=0;" parent="1" source="rYqSU0_YD1WcTbU8GYVV-1" target="rYqSU0_YD1WcTbU8GYVV-5" edge="1">
          <mxGeometry relative="1" as="geometry">
            <mxPoint x="330" y="120" as="targetPoint" />
            <mxPoint x="160" y="120" as="sourcePoint" />
            <Array as="points" />
          </mxGeometry>
        </mxCell>
        <mxCell id="rYqSU0_YD1WcTbU8GYVV-18" value="Text" style="edgeLabel;html=1;align=center;verticalAlign=middle;resizable=0;points=[];" parent="rYqSU0_YD1WcTbU8GYVV-17" vertex="1" connectable="0">
          <mxGeometry x="-0.1294" y="1" relative="1" as="geometry">
            <mxPoint as="offset" />
          </mxGeometry>
        </mxCell>
        <mxCell id="rYqSU0_YD1WcTbU8GYVV-19" value="User Refunds" style="edgeLabel;html=1;align=center;verticalAlign=middle;resizable=0;points=[];" parent="rYqSU0_YD1WcTbU8GYVV-17" vertex="1" connectable="0">
          <mxGeometry x="-0.1059" y="4" relative="1" as="geometry">
            <mxPoint as="offset" />
          </mxGeometry>
        </mxCell>
        <mxCell id="rYqSU0_YD1WcTbU8GYVV-26" value="" style="edgeStyle=orthogonalEdgeStyle;rounded=0;orthogonalLoop=1;jettySize=auto;html=1;endArrow=open;endFill=0;endSize=8;entryX=0.5;entryY=0;entryDx=0;entryDy=0;exitX=0.5;exitY=1;exitDx=0;exitDy=0;" parent="1" source="rYqSU0_YD1WcTbU8GYVV-5" target="rYqSU0_YD1WcTbU8GYVV-27" edge="1">
          <mxGeometry relative="1" as="geometry">
            <mxPoint x="440" y="465" as="targetPoint" />
            <mxPoint x="500" y="345" as="sourcePoint" />
          </mxGeometry>
        </mxCell>
        <mxCell id="rYqSU0_YD1WcTbU8GYVV-27" value="" style="ellipse;html=1;shape=endState;fillColor=#000000;strokeColor=#000000;" parent="1" vertex="1">
          <mxGeometry x="365" y="390" width="30" height="30" as="geometry" />
        </mxCell>
        <mxCell id="rYqSU0_YD1WcTbU8GYVV-28" value="&lt;font style=&quot;font-size: 20px;&quot;&gt;State Transition Diagram: Payment&lt;/font&gt;" style="text;html=1;align=center;verticalAlign=middle;whiteSpace=wrap;rounded=0;" parent="1" vertex="1">
          <mxGeometry x="260" width="250" height="50" as="geometry" />
        </mxCell>
      </root>
    </mxGraphModel>
  </diagram>
</mxfile>
